<?xml version="1.0" encoding="UTF-8" standalone="no"?>
<svg
  xmlns:dc="http://purl.org/dc/elements/1.1/"
  xmlns:cc="http://creativecommons.org/ns#"
  xmlns:rdf="http://www.w3.org/1999/02/22-rdf-syntax-ns#"
  xmlns:svg="http://www.w3.org/2000/svg"
  xmlns="http://www.w3.org/2000/svg"
  height="164.2"
  width="152.32001"
  id="svg60"
  viewBox="0 -2.7 152.32001 164.2"
  version="1.1">
 <metadata
   id="metadata66">
  <rdf:RDF>
   <cc:Work
     rdf:about="">
    <dc:format>image/svg+xml</dc:format>
    <dc:type
      rdf:resource="http://purl.org/dc/dcmitype/StillImage" />
    <dc:title></dc:title>
   </cc:Work>
  </rdf:RDF>
 </metadata>
 <defs
   id="defs64" />
 <path
   style="fill:#737577"
   id="path2"
   d="m 85.32,60.24 c 0,10.3 -8.35,18.6 -18.6,18.6 -10.3,0 -18.6,-8.35 -18.6,-18.6 0,-10.3 8.35,-18.6 18.6,-18.6 10.3,0 18.6,8.35 18.6,18.6" />
 <path
   style="fill:#858789"
   id="path4"
   d="m 112.32,54.74 c 0,5.01 -4.06,9.07 -9.08,9.07 -5.01,0 -9.07,-4.06 -9.07,-9.07 0,-5.01 4.06,-9.07 9.07,-9.07 5.01,0 9.08,4.06 9.08,9.07" />
 <path
   style="fill:#858789"
   id="path6"
   d="m 107.32,87.54 c 0,6.4 -5.19,11.6 -11.6,11.6 -6.4,0 -11.6,-5.19 -11.6,-11.6 0,-6.4 5.19,-11.6 11.6,-11.6 6.4,0 11.6,5.19 11.6,11.6" />
 <path
   style="fill:#858789"
   id="path8"
   d="m 42.32,140.44 c 0,8.07 -6.54,14.6 -14.6,14.6 -8.07,0 -14.6,-6.54 -14.6,-14.6 0,-8.07 6.54,-14.6 14.6,-14.6 8.07,0 14.6,6.54 14.6,14.6" />
 <path
   style="fill:#858789"
   id="path10"
   d="m 17.32,40.04 c 0,-4.18 3.38,-7.56 7.56,-7.56 4.18,0 7.56,3.38 7.56,7.56 0,4.18 -3.38,7.56 -7.56,7.56 -4.18,0 -7.56,-3.38 -7.56,-7.56" />
 <path
   style="fill:#858789"
   id="path12"
   d="m 40.32,105.44 c 0,2.78 -2.26,5.04 -5.04,5.04 -2.78,0 -5.04,-2.26 -5.04,-5.04 0,-2.79 2.26,-5.04 5.04,-5.04 2.78,0 5.04,2.26 5.04,5.04" />
 <path
   style="fill:#858789"
   id="path14"
   d="m 152.32,153.44 c 0,3.9 -3.16,7.06 -7.06,7.06 -3.9,0 -7.06,-3.16 -7.06,-7.06 0,-3.9 3.16,-7.06 7.06,-7.06 3.9,0 7.06,3.16 7.06,7.06" />
 <path
   style="fill:#4d4c4e"
   id="path24"
   d="m 92.32,110.44 c 0,6.12 -4.96,11.1 -11.1,11.1 -6.12,0 -11.1,-4.96 -11.1,-11.1 0,-6.12 4.96,-11.1 11.1,-11.1 6.12,0 11.1,4.97 11.1,11.1" />
 <path
   style="fill:#4d4c4e"
   id="path26"
   d="m 122.32,132.44 c 0,7.24 -5.87,13.1 -13.1,13.1 -7.24,0 -13.1,-5.87 -13.1,-13.1 0,-7.24 5.87,-13.1 13.1,-13.1 7.24,0 13.1,5.87 13.1,13.1" />
 <path
   style="fill:#4d4c4e"
   id="path28"
   d="m 37.32,19.44 c 0,4.45 -3.61,8.06 -8.07,8.06 -4.45,0 -8.06,-3.61 -8.06,-8.06 0,-4.45 3.61,-8.06 8.06,-8.06 4.46,0 8.07,3.61 8.07,8.06" />
 <path
   style="fill:#4d4c4e"
   id="path30"
   d="m 14.12,154.44 c 0,3.9 -3.16,7.06 -7.06,7.06 -3.9,0 -7.06,-3.16 -7.06,-7.06 0,-3.9 3.16,-7.06 7.06,-7.06 3.9,0 7.06,3.16 7.06,7.06" />
 <path
   style="fill:#4d4c4e"
   id="path32"
   d="m 104.32,34.04 c 0,4.18 -3.39,7.56 -7.56,7.56 -4.18,0 -7.56,-3.38 -7.56,-7.56 0,-4.18 3.38,-7.56 7.56,-7.56 4.18,0 7.56,3.38 7.56,7.56" />
 <path
   style="fill:#0088cc"
   id="path34"
   d="m 56.32,34.04 c 0,5.84 -4.74,10.6 -10.6,10.6 -5.84,0 -10.6,-4.74 -10.6,-10.6 0,-5.85 4.74,-10.6 10.6,-10.6 5.85,0 10.6,4.74 10.6,10.6" />
 <path
   style="fill:#0088cc"
   id="path36"
   d="m 43.32,56.74 c 0,3.9 -3.16,7.06 -7.06,7.06 -3.9,0 -7.06,-3.16 -7.06,-7.06 0,-3.9 3.16,-7.06 7.06,-7.06 3.9,0 7.06,3.16 7.06,7.06" />
 <path
   style="fill:#0088cc"
   id="path42"
   d="m 152.32,14.94 c 0,4.18 -3.38,7.56 -7.56,7.56 -4.18,0 -7.56,-3.38 -7.56,-7.56 0,-4.18 3.38,-7.56 7.56,-7.56 4.18,0 7.56,3.38 7.56,7.56" />
 <path
   style="fill:#0088cc"
   id="path44"
   d="m 136.32,32.54 c 0,7.8 -6.32,14.1 -14.1,14.1 -7.8,0 -14.1,-6.32 -14.1,-14.1 0,-7.79 6.32,-14.1 14.1,-14.1 7.79,0 14.1,6.32 14.1,14.1" />
 <path
   style="fill:#0088cc"
   id="path46"
   d="m 65.32,93.44 c 0,5.57 -4.51,10.1 -10.1,10.1 -5.57,0 -10.1,-4.51 -10.1,-10.1 0,-5.57 4.51,-10.1 10.1,-10.1 5.57,0 10.1,4.51 10.1,10.1" />
 <path
   style="fill:#0088cc"
   id="path48"
   d="m 56.32,119.44 c 0,5.01 -4.06,9.07 -9.07,9.07 -5.01,0 -9.07,-4.06 -9.07,-9.07 0,-5.01 4.06,-9.07 9.07,-9.07 5.01,0 9.07,4.06 9.07,9.07" />
 <path
   style="fill:#0088cc"
   id="path50"
   d="m 130.32,107.44 c 0,5.01 -4.06,9.07 -9.07,9.07 -5.01,0 -9.07,-4.06 -9.07,-9.07 0,-5.01 4.06,-9.07 9.07,-9.07 5.01,0 9.07,4.06 9.07,9.07" />
 <path
   style="fill:#0088cc"
   id="path52"
   d="m 144.32,132.44 c 0,4.45 -3.61,8.06 -8.06,8.06 -4.45,0 -8.06,-3.61 -8.06,-8.06 0,-4.45 3.61,-8.06 8.06,-8.06 4.45,0 8.06,3.61 8.06,8.06" />
 <path
   style="fill:#0088cc"
   id="path54"
   d="m 15.92,15.94 c 0,2.78 -2.26,5.04 -5.04,5.04 -2.78,0 -5.04,-2.26 -5.04,-5.04 0,-2.78 2.26,-5.04 5.04,-5.04 2.78,0 5.04,2.26 5.04,5.04" />
 <g
   transform="translate(-82.68,-8.56)"
   id="g3777">
  <path
    style="fill:#0088cc"
    d="m 96.8,10.9 c 0,2.78 -2.26,5.04 -5.04,5.04 -2.78,0 -5.04,-2.26 -5.04,-5.04 0,-2.78 2.26,-5.04 5.04,-5.04 2.78,0 5.04,2.26 5.04,5.04"
    id="path56" />
 </g>
 <path
   style="fill:#0088cc"
   id="path58"
   d="m 30.32,115.44 c 0,3.34 -2.71,6.05 -6.05,6.05 -3.34,0 -6.05,-2.71 -6.05,-6.05 0,-3.34 2.71,-6.05 6.05,-6.05 3.34,0 6.05,2.71 6.05,6.05" />
</svg>
