<?xml version="1.0" encoding="UTF-8" standalone="no"?>
<svg
   xmlns:dc="http://purl.org/dc/elements/1.1/"
   xmlns:cc="http://creativecommons.org/ns#"
   xmlns:rdf="http://www.w3.org/1999/02/22-rdf-syntax-ns#"
   xmlns:svg="http://www.w3.org/2000/svg"
   xmlns="http://www.w3.org/2000/svg"
   xmlns:sodipodi="http://sodipodi.sourceforge.net/DTD/sodipodi-0.dtd"
   xmlns:inkscape="http://www.inkscape.org/namespaces/inkscape"
   width="210mm"
   height="297mm"
   viewBox="0 0 210 297"
   version="1.1"
   id="svg8"
   inkscape:version="1.0.2 (e86c8708, 2021-01-15)"
   sodipodi:docname="yoex1.svg">
  <defs
     id="defs2" />
  <sodipodi:namedview
     id="base"
     pagecolor="#ffffff"
     bordercolor="#666666"
     borderopacity="1.0"
     inkscape:pageopacity="0.0"
     inkscape:pageshadow="2"
     inkscape:zoom="0.35"
     inkscape:cx="765.71429"
     inkscape:cy="311.42857"
     inkscape:document-units="mm"
     inkscape:current-layer="layer1"
     inkscape:document-rotation="0"
     showgrid="false"
     inkscape:window-width="1252"
     inkscape:window-height="1174"
     inkscape:window-x="0"
     inkscape:window-y="25"
     inkscape:window-maximized="0" />
  <metadata
     id="metadata5">
    <rdf:RDF>
      <cc:Work
         rdf:about="">
        <dc:format>image/svg+xml</dc:format>
        <dc:type
           rdf:resource="http://purl.org/dc/dcmitype/StillImage" />
        <dc:title></dc:title>
      </cc:Work>
    </rdf:RDF>
  </metadata>
  <g
     inkscape:label="Layer 1"
     inkscape:groupmode="layer"
     id="layer1">
    <g
       id="g63"
       transform="matrix(0.26458333,0,0,0.26458333,38.100001,80.45191)"
       style="fill:#ffc107">
	<path
   class="st0"
   d="m 271.5,232.5 -1.3,-3.5 -0.9,0.5 z m 9.5,-7.6 -2.5,-2.8 -0.7,0.8 z m 6.1,-10.4 -3.3,-1.7 -0.4,1 z m 1.9,-12 -3.8,-0.4 0.1,1.1 z m -2.6,-11.8 -3.6,1 0.4,1 z m -49.5,39.6 2.6,-2.7 -0.8,-0.6 z m 23.1,5.8 0.1,-3.8 -1,0.2 z m -12.1,-0.7 1.4,-3.5 -1,-0.3 z m -8.4,-7.9 c 2.6,1.8 5.6,3.2 8.8,4.1 l 1.6,-15.1 z m 30.4,-54 -2.1,3.2 1,0.5 z m -42.4,13.3 2.9,2.3 0.5,-0.9 z m -4,11.4 3.6,1.1 0.2,-1 z m 0.3,12.2 3.7,-0.3 -0.2,-1 z m 56,-29.9 -3,2.2 0.7,0.8 z m -51.3,41 3.4,-1.6 -0.6,-0.9 z m 20.8,10.4 c 2.2,0.5 4.4,0.8 6.7,0.8 l 3,-0.1 -3.9,-14.7 z m 8.9,-61.4 -0.8,3.7 1.1,0.1 z m -12.1,1.5 0.6,3.7 1,-0.3 z m -10.7,5.7 1.9,3.2 0.8,-0.6 z m 34.8,51.3 c 2.9,-1.6 5.4,-3.7 7.6,-6.1 l -12.7,-8.2 z m -5.3,-24.3 c 0,4.9 -4,8.9 -8.9,8.9 -4.9,0 -8.9,-4 -8.9,-8.9 0,-4.9 4,-8.9 8.9,-8.9 4.9,0 8.9,4 8.9,8.9 z m -37.4,5.4 c 0.7,3.2 2,6.2 3.8,9 l 11.4,-10 z m -0.5,-10.8 -0.3,4.1 c 0,1.9 0.2,3.8 0.6,5.6 l 14.2,-5.2 z m 11.6,27.6 7,-13.4 -13.7,6.5 c 1.8,2.6 4.1,5 6.7,6.9 z M 256,244 c 22.4,0 40.5,-18.2 40.5,-40.5 0,-22.3 -18.2,-40.6 -40.5,-40.6 -22.3,0 -40.5,18.2 -40.5,40.6 0,22.3 18.2,40.5 40.5,40.5 z m 0,-74.3 c 18.6,0 33.7,15.1 33.7,33.7 0,18.6 -15.1,33.7 -33.7,33.7 -18.6,0 -33.7,-15.1 -33.7,-33.7 0,-18.6 15.2,-33.7 33.7,-33.7 z m -25.5,19.5 c -1.6,2.8 -2.7,5.9 -3.3,9.2 l 15.2,0.2 z m 135.6,183.6 c -77.2,-19.2 -110,19.9 -110,19.9 -0.4,39.2 53.2,109.3 118.9,117.8 65.7,8.5 107.8,-22.9 107.8,-22.9 0,0 -39.6,-95.6 -116.7,-114.8 z m -220.1,0 C 68.8,392 29.3,487.6 29.3,487.6 c 0,0 42.1,31.4 107.8,22.9 65.7,-8.5 119.3,-78.6 118.9,-117.8 0,0 -32.9,-39.1 -110,-19.9 z M 260,232.4 c 3.3,-0.4 6.4,-1.5 9.3,-2.9 l -8.9,-12.2 z M 41.1,291.9 H 470.9 L 484.2,252 H 421.1 L 433.5,180.5 450,85.3 C 450,85.3 406.5,-0.1 257,-0.1 75.3,0 62.1,85.4 62.1,85.4 L 90.9,252.1 H 27.8 Z M 256,156.8 c 25.7,0 46.7,20.9 46.7,46.7 0,25.7 -20.9,46.6 -46.7,46.6 -25.8,0 -46.7,-20.9 -46.7,-46.6 0,-25.8 21,-46.7 46.7,-46.7 z m 29.2,45.3 c -0.1,-3.3 -0.9,-6.5 -2,-9.5 l -13,7.8 z m -1.5,10.6 c 1,-2.9 1.5,-6.1 1.5,-9.3 v -0.3 l -14.9,2.6 z m -5.2,9.4 c 2.1,-2.5 3.7,-5.3 4.9,-8.4 l -14.8,-3 z m 4.3,-30.5 c -1.3,-3 -3.1,-5.7 -5.3,-8.1 l -9.3,11.9 z m -6.1,-8.8 c -2.3,-2.3 -5,-4.2 -7.9,-5.6 l -4.4,14.5 z m -39.4,-1.9 c -2.5,2.1 -4.6,4.6 -6.3,7.4 l 14,5.7 z m 20.1,-6.7 -1.4,-0.1 c -2.9,0 -5.6,0.4 -8.3,1.2 l 6.5,13.7 z m -10.7,1.5 c -3.1,1 -6,2.6 -8.6,4.6 l 11,10.4 z m 21.1,1 c -2.9,-1.3 -6.1,-2.1 -9.4,-2.4 l 1.2,15.1 z"
   id="path61"
   style="fill:#ffc107" />

</g>
    <path
       style="fill:#0d6efd;fill-opacity:0;stroke-width:2.85714"
       d="m 242.85714,813.92616 c -3.14285,-0.61889 -12.78571,-2.54119 -21.42857,-4.27177 -15.34724,-3.07301 -45.71428,-16.00218 -45.71428,-19.46345 0,-0.95645 5.9798,-11.99782 13.28844,-24.53639 16.3821,-28.10482 53.27938,-65.99178 74.9085,-76.91772 40.65995,-20.53937 91.14233,-20.42249 123.94823,0.28697 10.60949,6.69748 11.15525,7.71748 9.33133,17.43983 -6.05314,32.26597 -44.16176,77.83805 -78.99015,94.46011 -23.60147,11.26394 -55.88209,16.83478 -75.3435,13.00242 z"
       id="path75"
       transform="scale(0.26458333)" />
    <path
       style="fill:#0d6efd;fill-opacity:0;stroke-width:2.85714"
       d="m 242.85714,813.92616 c -3.14285,-0.61889 -12.78571,-2.54119 -21.42857,-4.27177 -15.34724,-3.07301 -45.71428,-16.00218 -45.71428,-19.46345 0,-0.95645 5.9798,-11.99782 13.28844,-24.53639 16.3821,-28.10482 53.27938,-65.99178 74.9085,-76.91772 40.65995,-20.53937 91.14233,-20.42249 123.94823,0.28697 10.60949,6.69748 11.15525,7.71748 9.33133,17.43983 -6.05314,32.26597 -44.16176,77.83805 -78.99015,94.46011 -23.60147,11.26394 -55.88209,16.83478 -75.3435,13.00242 z"
       id="path77"
       transform="scale(0.26458333)" />
    <path
       style="fill:#0d6efd;fill-opacity:0;stroke-width:2.85714"
       d="m 516.06124,812.64235 c -8.45203,-1.4856 -23.73869,-6.69636 -33.97035,-11.57948 -34.18486,-16.31493 -73.43467,-62.9463 -79.21223,-94.10937 -1.76366,-9.51284 -1.14325,-10.68292 9.34444,-17.62335 31.48799,-20.83776 83.04871,-21.25248 123.03557,-0.9896 27.35833,13.86352 65.8417,55.43758 83.22051,89.90417 6.99873,13.88023 6.84556,14.18209 -11.33632,22.34203 -25.85098,11.60178 -64.53373,16.72184 -91.08162,12.0556 z"
       id="path79"
       transform="scale(0.26458333)" />
    <path
       style="fill:#3485fd;fill-opacity:1;stroke-width:2.85714"
       d="m 185.67923,592.16106 c -5.88075,-16.26008 -9.96494,-29.00321 -9.96494,-31.09171 0,-1.37386 13.5,-2.49792 30,-2.49792 22.10532,0 29.99502,-0.93984 29.98108,-3.57143 -0.0103,-1.96429 -6.39888,-40.21261 -14.19661,-84.99628 l -14.17769,-81.42485 5.84952,-12.08352 c 7.66018,-15.82381 30.22308,-35.84914 52.14204,-46.27782 53.12586,-25.2764 145.30587,-32.0288 213.2588,-15.62172 39.93706,9.64271 89.55248,40.12311 108.40214,66.59502 l 5.71923,8.03191 -14.19111,81.10291 c -7.80512,44.60661 -14.19672,82.71006 -14.20355,84.67435 -0.009,2.63117 7.88572,3.57143 29.98757,3.57143 33.50195,0 32.40626,-0.95707 24.53215,21.42857 l -5.025,14.28571 -213.40769,0.73249 c -169.24171,0.58091 -213.67636,-0.0114 -214.70594,-2.85714 z m 235.69096,-42.87535 c 16.89557,-8.63321 23.57686,-18.56012 25.1346,-37.34445 1.64236,-19.80473 -4.88553,-34.12894 -20.1599,-44.23704 -23.39642,-15.48301 -57.35038,-6.56189 -69.07661,18.1493 -6.45556,13.60409 -4.88311,38.2446 3.14387,49.26497 7.06891,9.705 28.00246,20.5958 39.58785,20.5958 4.83406,0 14.45065,-2.89286 21.37019,-6.42858 z"
       id="path85"
       transform="scale(0.26458333)" />
  </g>
  <style
     type="text/css"
     id="style59">
	.st0{fill:#444444;}
</style>
</svg>
